<svg
          xmlns="http://www.w3.org/2000/svg"
          xmlns:xlink="http://www.w3.org/1999/xlink"
          width="40px"
          height="40px"
          viewBox="0 0 50 50"
          version="1.1"
        >
          <g id="surface1">
            <path
            
              d="M 44.765625 6.28125 C 39.121094 1.53125 30.398438 2.246094 25 7.742188 C 19.601562 2.246094 10.878906 1.523438 5.234375 6.28125 C -2.109375 12.460938 -1.035156 22.539062 4.199219 27.882812 L 21.328125 45.332031 C 22.304688 46.328125 23.613281 46.882812 25 46.882812 C 26.398438 46.882812 27.695312 46.335938 28.671875 45.339844 L 45.800781 27.890625 C 51.023438 22.550781 52.121094 12.472656 44.765625 6.28125 Z M 42.460938 24.589844 L 25.332031 42.039062 C 25.097656 42.273438 24.902344 42.273438 24.667969 42.039062 L 7.539062 24.589844 C 3.976562 20.957031 3.253906 14.082031 8.25 9.875 C 12.050781 6.679688 17.910156 7.160156 21.582031 10.898438 L 25 14.386719 L 28.417969 10.898438 C 32.109375 7.140625 37.96875 6.679688 41.75 9.863281 C 46.738281 14.074219 45.996094 20.988281 42.460938 24.589844 Z M 42.460938 24.589844 "
            />
          </g>
        </svg>
